<svg xmlns="http://www.w3.org/2000/svg" width="1646" height="315" fill="none"><path fill="#fff" d="M0 310.084V4.46539h20.7407V288.926H188.922v21.158H0Zm493.382.005h-22.639l-33.605-77.601-9.24-21.184-68.631-158.4526-71.879 158.4526-9.645 21.184-35.533 77.601h-23.046L360.181.731506 493.382 310.089ZM751.874 4.46503V26.0937H633.455V310.083h-21.199V26.0937H493.382V4.46503h258.492ZM811.435 310.084V4.46539h193.985V26.0941H832.176V146.464h135.007v21.629H832.176v119.891h173.244v22.1H811.435ZM1108.11 61.1279V309.376h-20.73V-.00003052L1294.72 252.959V3.75812h20.74V314.549L1108.11 61.1279Zm536.93-56.66287V26.0937h-118.42V310.083h-21.2V26.0937h-118.87V4.46503h258.49Z"/><path fill="#fff" d="m470.943 310.021-179.35-78.005 9.891-22.733 179.35 78.005-9.891 22.733Zm-223.114-96.05-64.653-28.119 9.891-22.733 64.653 28.119-9.891 22.733Z"/></svg>